{
  "accessors": [
    {
      "bufferView": 2,
      "componentType": 5126,
      "count": 1006,
      "max": [
        1302.9124755859375,
        1344.287841796875,
        491.70761108398438
      ],
      "min": [
        -1302.911865234375,
        -470.894287109375,
        -159.87759399414062
      ],
      "type": "VEC3"
    },
    {
      "bufferView": 2,
      "byteOffset": 12072,
      "componentType": 5126,
      "count": 1006,
      "max": [
        0.99983245134353638,
        1,
        0.999775230884552
      ],
      "min": [
        -0.99983245134353638,
        -0.77707129716873169,
        -0.99997186660766602
      ],
      "type": "VEC3"
    },
    {
      "bufferView": 3,
      "componentType": 5126,
      "count": 1006,
      "max": [
        0.99999982118606567,
        0.99999886751174927,
        0.91151821613311768,
        1
      ],
      "min": [
        -0.99999982118606567,
        -0.99998855590820312,
        -1,
        -1
      ],
      "type": "VEC4"
    },
    {
      "bufferView": 1,
      "componentType": 5126,
      "count": 1006,
      "max": [
        0.99610000848770142,
        0.61779999732971191
      ],
      "min": [
        0.0023000000510364771,
        -0.0035000001080334187
      ],
      "type": "VEC2"
    },
    {
      "bufferView": 0,
      "componentType": 5125,
      "count": 3729,
      "max": [
        1005
      ],
      "min": [
        0
      ],
      "type": "SCALAR"
    },
    {
      "bufferView": 2,
      "byteOffset": 24144,
      "componentType": 5126,
      "count": 2745,
      "max": [
        1302.9124755859375,
        1344.287841796875,
        491.70761108398438
      ],
      "min": [
        -1302.911865234375,
        -1342.3955078125,
        -172.78059387207031
      ],
      "type": "VEC3"
    },
    {
      "bufferView": 2,
      "byteOffset": 57084,
      "componentType": 5126,
      "count": 2745,
      "max": [
        1,
        1,
        1
      ],
      "min": [
        -1,
        -1,
        -0.99999964237213135
      ],
      "type": "VEC3"
    },
    {
      "bufferView": 3,
      "byteOffset": 16096,
      "componentType": 5126,
      "count": 2745,
      "max": [
        1,
        1,
        0.99999803304672241,
        1
      ],
      "min": [
        -1,
        -0.99999892711639404,
        -1,
        -1
      ],
      "type": "VEC4"
    },
    {
      "bufferView": 1,
      "byteOffset": 8048,
      "componentType": 5126,
      "count": 2745,
      "max": [
        0.99819999933242798,
        0.99809998273849487
      ],
      "min": [
        0.0010000000474974513,
        -0.0035000001080334187
      ],
      "type": "VEC2"
    },
    {
      "bufferView": 0,
      "byteOffset": 14916,
      "componentType": 5125,
      "count": 12042,
      "max": [
        2744
      ],
      "min": [
        0
      ],
      "type": "SCALAR"
    }
  ],
  "asset": {
    "extras": {
      "author": "paperscan (https://sketchfab.com/paperscan)",
      "license": "CC-BY-4.0 (http://creativecommons.org/licenses/by/4.0/)",
      "source": "https://sketchfab.com/models/9e3d54d7fa624281a5d32cbbb01b35e5",
      "title": "A350 QTR"
    },
    "generator": "Sketchfab-3.36.3",
    "version": "2.0"
  },
  "bufferViews": [
    {
      "buffer": 0,
      "byteLength": 63084,
      "byteOffset": 0,
      "name": "floatBufferViews",
      "target": 34963
    },
    {
      "buffer": 0,
      "byteLength": 30008,
      "byteOffset": 63084,
      "byteStride": 8,
      "name": "floatBufferViews",
      "target": 34962
    },
    {
      "buffer": 0,
      "byteLength": 90024,
      "byteOffset": 93092,
      "byteStride": 12,
      "name": "floatBufferViews",
      "target": 34962
    },
    {
      "buffer": 0,
      "byteLength": 60016,
      "byteOffset": 183116,
      "byteStride": 16,
      "name": "floatBufferViews",
      "target": 34962
    }
  ],
  "buffers": [
    {
      "byteLength": 243132,
      "uri": "scene.bin"
    }
  ],
  "images": [
    {
      "uri": "textures/07___Default_baseColor.png"
    }
  ],
  "materials": [
    {
      "doubleSided": false,
      "name": "07___Default",
      "pbrMetallicRoughness": {
        "baseColorFactor": [
          1,
          1,
          1,
          1
        ],
        "baseColorTexture": {
          "index": 0,
          "texCoord": 0
        },
        "metallicFactor": 0,
        "roughnessFactor": 0.59999999999999998
      }
    }
  ],
  "meshes": [
    {
      "primitives": [
        {
          "attributes": {
            "NORMAL": 1,
            "POSITION": 0,
            "TANGENT": 2,
            "TEXCOORD_0": 3
          },
          "indices": 4,
          "material": 0,
          "mode": 4
        }
      ]
    },
    {
      "primitives": [
        {
          "attributes": {
            "NORMAL": 6,
            "POSITION": 5,
            "TANGENT": 7,
            "TEXCOORD_0": 8
          },
          "indices": 9,
          "material": 0,
          "mode": 4
        }
      ]
    }
  ],
  "nodes": [
    {
      "children": [
        1
      ],
      "name": "RootNode (gltf orientation matrix)",
      "rotation": [
        -0.70710678118654746,
        -0,
        -0,
        0.70710678118654757
      ]
    },
    {
      "children": [
        2
      ],
      "name": "RootNode (model correction matrix)"
    },
    {
      "children": [
        3,
        4
      ],
      "name": "b54c0b09d9dd4dc4951424da5b0121b5.obj.cleaner"
    },
    {
      "mesh": 0,
      "name": ""
    },
    {
      "mesh": 1,
      "name": ""
    }
  ],
  "samplers": [
    {
      "magFilter": 9729,
      "minFilter": 9987,
      "wrapS": 10497,
      "wrapT": 10497
    }
  ],
  "scene": 0,
  "scenes": [
    {
      "name": "OSG_Scene",
      "nodes": [
        0
      ]
    }
  ],
  "textures": [
    {
      "sampler": 0,
      "source": 0
    }
  ]
}

